<mxfile host="65bd71144e">
    <diagram id="gKoQMK6PuJCsGtgx624p" name="ページ1">
        <mxGraphModel dx="516" dy="419" grid="1" gridSize="10" guides="1" tooltips="1" connect="1" arrows="1" fold="1" page="1" pageScale="1" pageWidth="827" pageHeight="1169" math="0" shadow="0">
            <root>
                <mxCell id="0"/>
                <mxCell id="1" parent="0"/>
                <mxCell id="2" value="RoboDog" style="text;html=1;align=center;verticalAlign=middle;resizable=0;points=[];autosize=1;strokeColor=none;fillColor=none;" parent="1" vertex="1">
                    <mxGeometry x="60" y="80" width="70" height="30" as="geometry"/>
                </mxCell>
                <mxCell id="7TKX0nzeGR5WKmrcJKe4-2" value="ユーザ" style="shape=umlActor;verticalLabelPosition=bottom;verticalAlign=top;html=1;outlineConnect=0;" parent="1" vertex="1">
                    <mxGeometry x="75" y="130" width="30" height="60" as="geometry"/>
                </mxCell>
                <mxCell id="7TKX0nzeGR5WKmrcJKe4-4" value="" style="html=1;whiteSpace=wrap;align=center;" parent="1" vertex="1">
                    <mxGeometry x="180" y="80" width="220" height="190" as="geometry"/>
                </mxCell>
                <mxCell id="7TKX0nzeGR5WKmrcJKe4-5" value="システム内部" style="text;html=1;align=center;verticalAlign=middle;resizable=0;points=[];autosize=1;strokeColor=none;fillColor=none;" parent="1" vertex="1">
                    <mxGeometry x="240" y="80" width="100" height="30" as="geometry"/>
                </mxCell>
                <mxCell id="7TKX0nzeGR5WKmrcJKe4-7" value="名前を変更する" style="ellipse;whiteSpace=wrap;html=1;" parent="1" vertex="1">
                    <mxGeometry x="210" y="110" width="180" height="40" as="geometry"/>
                </mxCell>
                <mxCell id="7TKX0nzeGR5WKmrcJKe4-9" value="時刻に応じた挨拶をする" style="ellipse;whiteSpace=wrap;html=1;" parent="1" vertex="1">
                    <mxGeometry x="210" y="160" width="180" height="40" as="geometry"/>
                </mxCell>
                <mxCell id="7TKX0nzeGR5WKmrcJKe4-12" value="" style="endArrow=none;html=1;rounded=0;entryX=0;entryY=0.5;entryDx=0;entryDy=0;" parent="1" target="7TKX0nzeGR5WKmrcJKe4-9" edge="1">
                    <mxGeometry width="50" height="50" relative="1" as="geometry">
                        <mxPoint x="110" y="160" as="sourcePoint"/>
                        <mxPoint x="420" y="210" as="targetPoint"/>
                    </mxGeometry>
                </mxCell>
                <mxCell id="7TKX0nzeGR5WKmrcJKe4-13" value="" style="endArrow=none;html=1;rounded=0;entryX=0;entryY=0.5;entryDx=0;entryDy=0;" parent="1" target="7TKX0nzeGR5WKmrcJKe4-7" edge="1">
                    <mxGeometry width="50" height="50" relative="1" as="geometry">
                        <mxPoint x="110" y="160" as="sourcePoint"/>
                        <mxPoint x="240" y="150" as="targetPoint"/>
                    </mxGeometry>
                </mxCell>
                <mxCell id="3" value="2つの整数の足し算をする" style="ellipse;whiteSpace=wrap;html=1;" vertex="1" parent="1">
                    <mxGeometry x="210" y="210" width="180" height="40" as="geometry"/>
                </mxCell>
                <mxCell id="4" value="" style="endArrow=none;html=1;rounded=0;entryX=0;entryY=0.5;entryDx=0;entryDy=0;" edge="1" parent="1" target="3">
                    <mxGeometry width="50" height="50" relative="1" as="geometry">
                        <mxPoint x="110" y="160" as="sourcePoint"/>
                        <mxPoint x="220" y="190" as="targetPoint"/>
                    </mxGeometry>
                </mxCell>
            </root>
        </mxGraphModel>
    </diagram>
</mxfile>